<svg xmlns:xlink="http://www.w3.org/1999/xlink" width="220" xmlns="http://www.w3.org/2000/svg" height="80" id="screenshot-b88b7066-438f-808c-8002-3254b322bda9" viewBox="-10 -10 130 60" style="-webkit-print-color-adjust: exact;" fill="none" version="1.1"><g id="shape-b88b7066-438f-808c-8002-3254b322bda9" rx="0" ry="0" filter="url(#filter_rumext-id-1)"><defs><filter id="filter_rumext-id-1" x="-0.2844827586206897" y="-0.7333333333333333" width="1.6724137931034484" height="2.7333333333333334" filterUnits="objectBoundingBox" color-interpolation-filters="sRGB"><feFlood flood-opacity="0" result="BackgroundImageFix"/><feColorMatrix in="SourceAlpha" type="matrix" values="0 0 0 0 0 0 0 0 0 0 0 0 0 0 0 0 0 0 127 0"/><feMorphology radius="2" operator="dilate" in="SourceAlpha" result="filter_b88b7066-438f-808c-8002-325414c48b25"/><feOffset dx="4" dy="4"/><feGaussianBlur stdDeviation="2"/><feColorMatrix type="matrix" values="0 0 0 0 0 0 0 0 0 0 0 0 0 0 0 0 0 0 0.2 0"/><feBlend mode="normal" in2="BackgroundImageFix" result="filter_b88b7066-438f-808c-8002-325414c48b25"/><feBlend mode="normal" in="SourceGraphic" in2="filter_b88b7066-438f-808c-8002-325414c48b25" result="shape"/></filter><filter id="filter_shadow_rumext-id-1" x="-0.2844827586206897" y="-0.7333333333333333" width="1.6724137931034484" height="2.7333333333333334" filterUnits="objectBoundingBox" color-interpolation-filters="sRGB"><feFlood flood-opacity="0" result="BackgroundImageFix"/><feColorMatrix in="SourceAlpha" type="matrix" values="0 0 0 0 0 0 0 0 0 0 0 0 0 0 0 0 0 0 127 0"/><feMorphology radius="2" operator="dilate" in="SourceAlpha" result="filter_b88b7066-438f-808c-8002-325414c48b25"/><feOffset dx="4" dy="4"/><feGaussianBlur stdDeviation="2"/><feColorMatrix type="matrix" values="0 0 0 0 0 0 0 0 0 0 0 0 0 0 0 0 0 0 0.2 0"/><feBlend mode="normal" in2="BackgroundImageFix" result="filter_b88b7066-438f-808c-8002-325414c48b25"/><feBlend mode="normal" in="SourceGraphic" in2="filter_b88b7066-438f-808c-8002-325414c48b25" result="shape"/></filter></defs><g id="shape-b88b7066-438f-808c-8002-3254b322bdaa"><g class="fills" id="fills-b88b7066-438f-808c-8002-3254b322bdaa"><path rx="0" ry="0" d="M105.671,3.151L116.000,3.151L112.061,28.854L108.184,31.773L105.671,3.151Z" style="fill: rgb(171, 193, 221); fill-opacity: 1;"/></g></g><g id="shape-b88b7066-438f-808c-8002-3254b322bdab"><g class="fills" id="fills-b88b7066-438f-808c-8002-3254b322bdab"><path rx="0" ry="0" d="M0.000,0.000L7.833,13.190L32.029,4.317L12.119,22.833L7.033,23.589L13.021,25.134L28.799,40.825L8.127,32.910L1.153,45.000L2.485,22.847L0.000,0.000Z" style="fill: rgb(171, 193, 221); fill-opacity: 1;"/></g></g><g id="shape-b88b7066-438f-808c-8002-3254b322bdac"><g class="fills" id="fills-b88b7066-438f-808c-8002-3254b322bdac"><path rx="0" ry="0" d="M28.603,23.157L33.207,23.024L35.800,32.506L37.828,26.006L43.373,31.664L46.953,22.847L51.313,23.433L48.934,38.831L28.603,39.701L28.603,23.157Z" style="fill: rgb(178, 178, 178); fill-opacity: 1;"/></g></g><g id="shape-b88b7066-438f-808c-8002-3254b322bdad"><g class="fills" id="fills-b88b7066-438f-808c-8002-3254b322bdad"><path rx="0" ry="0" d="M58.000,22.588L62.879,21.271L77.596,22.196L71.437,27.927L64.863,27.182L64.863,35.239L69.691,34.672L71.717,27.004L77.375,22.886L76.699,37.154L58.000,39.132L58.000,22.588Z" style="fill: rgb(178, 178, 178); fill-opacity: 1;"/></g></g><g id="shape-b88b7066-438f-808c-8002-3254b322bdae"><g class="fills" id="fills-b88b7066-438f-808c-8002-3254b322bdae"><path rx="0" ry="0" d="M83.425,25.686L93.629,20.483L101.689,27.588L98.434,29.634L92.750,26.866L89.278,31.762L90.305,34.658L98.248,29.858L101.627,27.328L99.275,38.365L84.259,37.853L83.425,25.686Z" style="fill: rgb(178, 178, 178); fill-opacity: 1;"/></g></g><g id="shape-b88b7066-438f-808c-8002-3254b322bdaf"><g class="fills" id="fills-b88b7066-438f-808c-8002-3254b322bdaf"><path rx="0" ry="0" d="M108.055,32.366L112.738,31.513L111.944,39.715L108.055,37.881L108.055,32.366Z" style="fill: rgb(171, 193, 221); fill-opacity: 1;"/></g></g></g></svg>