<svg xmlns:xlink="http://www.w3.org/1999/xlink" width="495" xmlns="http://www.w3.org/2000/svg" height="213" id="screenshot-b78fa1da-fc65-80d0-8002-2fb9a676a89b" viewBox="0 0 495 213" style="-webkit-print-color-adjust: exact;" fill="none" version="1.1"><g id="shape-b78fa1da-fc65-80d0-8002-2fb9a676a89b" rx="0" ry="0"><g id="shape-b78fa1da-fc65-80d0-8002-2fabab764c7f"><g class="fills" id="fills-b78fa1da-fc65-80d0-8002-2fabab764c7f"><path rx="0" ry="0" d="M0.000,0.000L19.174,36.678L78.404,12.004L29.667,63.496L17.217,65.598L31.873,69.893L70.497,113.527L19.894,91.516L2.822,125.138L6.083,63.533L0.000,0.000Z" style="fill: rgb(171, 193, 221); fill-opacity: 0.725;"/></g></g><g id="shape-b78fa1da-fc65-80d0-8002-2fabab764c80"><g class="fills" id="fills-b78fa1da-fc65-80d0-8002-2fabab764c80"><path rx="0" ry="0" d="M470.426,107.831L495.000,107.831L485.964,179.698L474.705,180.696L470.426,107.831Z" style="fill: rgb(171, 193, 221); fill-opacity: 0.725;"/></g></g><g id="shape-b78fa1da-fc65-80d0-8002-2fabab764c81"><g class="fills" id="fills-b78fa1da-fc65-80d0-8002-2fabab764c81"><path rx="0" ry="0" d="M280.851,163.295L292.238,162.917L298.651,189.879L303.668,171.396L317.383,187.484L326.237,162.413L337.021,164.079L331.137,207.864L280.851,210.338L280.851,163.295Z" style="fill: rgb(178, 178, 178); fill-opacity: 1;"/></g></g><g id="shape-b78fa1da-fc65-80d0-8002-2fabab764c82"><g class="fills" id="fills-b78fa1da-fc65-80d0-8002-2fabab764c82"><path rx="0" ry="0" d="M353.404,160.817L365.060,157.088L400.213,159.707L385.501,175.938L369.797,173.829L369.797,196.649L381.331,195.042L386.170,173.326L399.685,161.662L398.071,202.072L353.404,207.675L353.404,160.817Z" style="fill: rgb(178, 178, 178); fill-opacity: 1;"/></g></g><g id="shape-b78fa1da-fc65-80d0-8002-2fabab764c83"><g class="fills" id="fills-b78fa1da-fc65-80d0-8002-2fabab764c83"><path rx="0" ry="0" d="M415.426,171.806L440.272,157.088L459.894,177.186L451.969,182.976L438.130,175.144L429.677,188.994L432.178,197.188L451.516,183.609L459.744,176.452L454.016,207.675L417.458,206.225L415.426,171.806Z" style="fill: rgb(178, 178, 178); fill-opacity: 1;"/></g></g><g id="shape-b78fa1da-fc65-80d0-8002-2fabab764c84"><g class="fills" id="fills-b78fa1da-fc65-80d0-8002-2fabab764c84"><path rx="0" ry="0" d="M475.106,192.724L485.638,190.369L483.852,213.000L475.106,207.940L475.106,192.724Z" style="fill: rgb(171, 193, 221); fill-opacity: 0.725;"/></g></g><g id="shape-b78fa1da-fc65-80d0-8002-2fabab764c85"><g class="fills" id="fills-b78fa1da-fc65-80d0-8002-2fabab764c85"><path rx="0" ry="0" d="M78.404,61.365L118.935,58.575L127.950,92.109L110.319,93.895L112.158,76.974L95.054,77.452L94.993,97.028L111.190,92.373L128.723,92.004L120.101,115.819L78.404,112.492L78.404,61.365Z" style="fill: rgb(178, 178, 178); fill-opacity: 1;"/></g></g><g id="shape-b78fa1da-fc65-80d0-8002-2fabab764c86"><g class="fills" id="fills-b78fa1da-fc65-80d0-8002-2fabab764c86"><path rx="0" ry="0" d="M139.255,55.913L154.726,59.629L160.544,69.488L169.064,90.741L176.033,59.626L183.723,62.702L181.266,111.919L168.470,111.148L153.100,75.437L155.164,114.487L139.255,114.487L139.255,55.913Z" style="fill: rgb(178, 178, 178); fill-opacity: 1;"/></g></g><g id="shape-b78fa1da-fc65-80d0-8002-2fabab764c87"><g class="fills" id="fills-b78fa1da-fc65-80d0-8002-2fabab764c87"><path rx="0" ry="0" d="M195.426,58.652L207.355,55.913L216.448,71.743L222.822,91.043L222.507,64.506L234.316,60.708L235.213,111.972L222.218,111.210L207.261,81.140L208.207,110.644L195.796,114.487L195.426,58.652Z" style="fill: rgb(178, 178, 178); fill-opacity: 1;"/></g></g><g id="shape-b78fa1da-fc65-80d0-8002-2fabab764c88"><g class="fills" id="fills-b78fa1da-fc65-80d0-8002-2fabab764c88"><path rx="0" ry="0" d="M249.255,60.429L262.128,58.575L260.451,113.140L249.255,115.819L249.255,60.429Z" style="fill: rgb(178, 178, 178); fill-opacity: 1;"/></g></g><g id="shape-b78fa1da-fc65-80d0-8002-2fabab764c89"><g class="fills" id="fills-b78fa1da-fc65-80d0-8002-2fabab764c89"><path rx="0" ry="0" d="M279.681,58.575L314.784,60.525L297.271,72.201L290.066,73.591L288.255,98.917L313.010,105.645L317.128,117.150L291.653,114.203L279.681,114.203L279.681,58.575Z" style="fill: rgb(178, 178, 178); fill-opacity: 1;"/></g></g><g id="shape-b78fa1da-fc65-80d0-8002-2fabab764c8a"><g class="fills" id="fills-b78fa1da-fc65-80d0-8002-2fabab764c8a"><path rx="0" ry="0" d="M321.809,59.906L330.281,60.245L331.036,80.483L349.127,84.021L349.409,62.252L358.206,61.519L359.387,93.273L360.426,112.999L350.939,116.633L347.408,94.422L332.262,94.001L333.620,117.150L321.809,117.150L321.809,59.906Z" style="fill: rgb(178, 178, 178); fill-opacity: 1;"/></g></g><g id="shape-b78fa1da-fc65-80d0-8002-2fabab764c8b"><g class="fills" id="fills-b78fa1da-fc65-80d0-8002-2fabab764c8b"><path rx="0" ry="0" d="M372.984,58.575L380.319,58.575L380.319,117.150L370.957,114.998L372.984,58.575Z" style="fill: rgb(178, 178, 178); fill-opacity: 1;"/></g></g></g></svg>