<svg xmlns:xlink="http://www.w3.org/1999/xlink" width="18" xmlns="http://www.w3.org/2000/svg" height="18" id="screenshot-9ecb59cc-4403-80f7-8002-3ac030f90b3b" viewBox="0 0 18 18" style="-webkit-print-color-adjust: exact;" fill="none" version="1.1"><g id="shape-9ecb59cc-4403-80f7-8002-3ac030f90b3b" rx="0" ry="0"><g id="shape-9ecb59cc-4403-80f7-8002-3abf44a76497"><g class="fills" id="fills-9ecb59cc-4403-80f7-8002-3abf44a76497"><path rx="0" ry="0" d="M0.677,14.065L0.000,7.882L2.148,3.000L5.617,4.684L4.839,8.429L4.945,13.983L8.487,15.143L13.416,13.287L12.888,9.206L16.745,6.793L18.000,9.773L16.394,13.753L14.203,16.763L8.783,18.000L2.939,17.106L0.677,14.065Z" style="fill: rgb(131, 147, 167); fill-opacity: 1;"/></g></g><g id="shape-9ecb59cc-4403-80f7-8002-3abf44a76498"><g class="fills" id="fills-9ecb59cc-4403-80f7-8002-3abf44a76498"><path rx="0" ry="0" d="M5.333,2.196L9.124,0.255L11.543,0.000L13.947,1.855L14.667,4.961L11.191,8.688L11.139,10.500L7.039,9.784L10.088,7.434L11.749,3.451L9.948,1.696L6.477,3.091L5.333,2.196Z" style="fill: rgb(131, 147, 167); fill-opacity: 1;"/></g></g><g id="shape-9ecb59cc-4403-80f7-8002-3abf44a76499"><g class="fills" id="fills-9ecb59cc-4403-80f7-8002-3abf44a76499"><path rx="0" ry="0" d="M6.667,10.500L10.000,11.488L9.271,13.257L7.568,13.500L6.667,10.500Z" style="fill: rgb(131, 147, 167); fill-opacity: 1;"/></g></g></g></svg>